PathFileType	4	(X/Y/Z)	C:\Users\WrightLab\Desktop\Jo\P5V129.trc
DataRate	CameraRate	NumFrames	NumMarkers	Units	OrigDataRate	OrigDataStartFrame	OrigNumFrames
100.00	100.00	       29	19	mm	100.00	168	       671
Frame#	Time	Headset_Front			Headset_Back			Headset_Left			Headset_Right			Left_Shoulder			Right_Shoulder			Sternum			C7			Left Elbow			Right Elbow			Left Wrist			Right Wrist			Left ASIS			Right ASIS			S2			Left Knee			Right Knee			Left Ankle			Right Ankle			
		X1	Y1	Z1	X2	Y2	Z2	X3	Y3	Z3	X4	Y4	Z4	X5	Y5	Z5	X6	Y6	Z6	X7	Y7	Z7	X8	Y8	Z8	X9	Y9	Z9	X10	Y10	Z10	X11	Y11	Z11	X12	Y12	Z12	X13	Y13	Z13	X14	Y14	Z14	X15	Y15	Z15	X16	Y16	Z16	X17	Y17	Z17	X18	Y18	Z18	X19	Y19	Z19	

168	1.670																												-232.64072	1282.99670	1586.92615	-911.97644	1030.95398	1721.00134	-213.91962	1198.06787	1350.82031				-475.34229	986.89758	1620.12451							-563.24872	571.68341	1555.56982							
169	1.680																												-233.29044	1282.15588	1586.26672	-912.86584	1029.74231	1716.78052	-214.13670	1196.59534	1349.14429				-476.32437	985.70337	1619.96985							-565.97223	573.35651	1550.08398							
170	1.690																												-233.35092	1281.53406	1585.78040	-913.67053	1029.47668	1711.60596	-214.07356	1195.93921	1348.50903				-477.70093	985.28394	1614.97437							-567.66345	573.91760	1546.91089							
171	1.700																												-234.75673	1280.56482	1584.02856	-914.55750	1029.40393	1704.99182	-214.03522	1195.27039	1347.85535				-478.92941	984.44562	1613.52722							-569.90375	574.40112	1543.37634							
172	1.710																												-235.60495	1279.35742	1582.45288	-915.41949	1028.72058	1700.00708	-214.65073	1194.25708	1346.49390				-480.18808	983.40857	1609.88794							-572.54242	575.03204	1539.27649							
173	1.720																												-236.20404	1278.92078	1581.18213	-916.81152	1027.86743	1696.20679	-215.00693	1193.01294	1344.70422				-480.95917	984.54163	1606.73401							-573.11823	575.23309	1536.20801							
174	1.730																												-237.40271	1278.10803	1579.46655	-917.72137	1027.42065	1689.60681	-215.16557	1191.91748	1343.61658				-482.38397	983.07886	1601.07092							-575.75671	575.00092	1533.62219				-531.07397	168.06435	1667.84204	
175	1.740																												-238.38805	1277.01282	1577.29822	-918.80194	1026.96851	1682.40540	-215.34886	1191.01538	1341.81592				-484.08423	982.33527	1596.46558							-577.40198	574.81708	1530.10596				-540.70221	163.34305	1655.05005	
176	1.750																												-239.13084	1276.15967	1576.46387	-920.15070	1026.52454	1677.69983	-216.12732	1190.05310	1339.87891				-485.00717	981.44080	1593.32104							-578.64941	575.45746	1526.95764				-551.54181	159.98785	1642.28625	
177	1.760																												-240.38680	1274.93677	1573.12866	-921.60150	1025.48145	1671.69470	-215.69695	1188.55078	1337.95349				-486.32278	980.85132	1590.08386							-580.60883	574.27899	1523.69214				-562.54974	156.70270	1630.77905	
178	1.770																												-240.99904	1274.52014	1571.69141	-923.08319	1025.21582	1664.53601	-216.15485	1187.49109	1335.36194				-488.50986	979.24341	1585.62817							-581.69983	574.12396	1521.71167				-573.09515	153.68060	1618.86975	
179	1.780																												-242.62955	1273.16040	1567.26782	-924.51904	1024.37341	1658.21130	-216.39368	1186.56213	1332.96765				-491.26389	977.79669	1581.65674							-582.64911	573.71112	1516.31543				-583.61377	151.29750	1607.55115	
180	1.790																												-243.09903	1272.30811	1565.44373	-926.36682	1023.49139	1652.83203	-216.35268	1185.88123	1330.19812				-491.03473	977.64728	1578.65710							-585.31384	572.90521	1514.82837				-593.60040	149.19820	1597.33777	
181	1.800																												-244.74629	1271.48071	1561.84753	-927.81812	1023.00488	1645.51941	-216.18590	1184.10144	1327.09875				-492.45529	976.55829	1574.54224							-587.20123	573.25793	1510.97498				-602.67291	147.21649	1586.67737	
182	1.810																												-246.69106	1270.49426	1558.15540	-929.65039	1022.33954	1638.17908	-217.31503	1183.05884	1323.87427				-494.64899	975.94458	1569.34778							-588.55548	572.61340	1506.90588				-612.18433	145.84073	1576.67065	
183	1.820																												-247.86928	1269.56165	1555.23535	-931.71783	1021.48688	1632.31909	-217.51915	1182.62695	1320.87402				-496.00970	975.01965	1564.29492							-590.63135	572.07526	1502.77295				-620.24304	143.27455	1568.73267	
184	1.830																												-249.26472	1268.30542	1551.90747	-933.81378	1020.58496	1624.87695	-217.62379	1181.92590	1317.56348				-497.19458	974.26563	1558.93787							-592.81146	571.52533	1500.04089				-628.38055	141.95195	1559.26111	
185	1.840																												-251.07677	1267.26563	1547.95313	-935.67603	1020.22632	1617.34070	-217.59940	1181.07642	1313.78040				-499.09079	973.29828	1555.36670							-594.65021	569.97510	1496.99182				-635.82434	140.97589	1551.98938	
186	1.850																												-252.83243	1266.11450	1543.59644	-937.89740	1019.11029	1610.15295	-218.02145	1180.28052	1310.48401				-500.56125	972.22919	1550.94824							-596.86090	569.01282	1494.14612				-642.65387	139.11853	1545.99292	
187	1.860																												-253.85570	1264.90942	1539.25439	-940.22711	1018.28632	1603.32751	-218.80952	1179.45886	1306.27637				-502.95557	970.95618	1545.76221							-599.05688	567.45270	1490.99744				-649.40778	138.53735	1539.35583	
188	1.870																												-256.10550	1263.89490	1535.65112	-942.46942	1017.44604	1595.46118	-219.67029	1178.58948	1302.04443				-504.82260	969.72546	1539.82715							-602.45538	564.65771	1489.86987				-655.20410	136.39423	1534.95105	
189	1.880																												-257.78149	1262.12488	1532.28186	-944.60748	1016.79150	1587.97559	-220.43840	1178.22253	1298.59363				-506.49081	968.98663	1532.46143							-604.46875	563.60406	1487.34790				-660.22028	135.02261	1531.57239	
190	1.890																												-259.86081	1261.57898	1527.24866	-947.30475	1015.85022	1580.82910	-220.77643	1177.31946	1294.88208				-509.67133	967.05530	1525.84631							-606.90790	561.59918	1484.04443				-664.02948	132.48637	1528.09070	
191	1.900																												-261.10434	1259.98474	1523.88025	-949.53870	1014.80389	1572.16260	-221.90703	1176.24939	1290.33813				-511.49875	965.99213	1519.07458							-609.84351	559.44055	1480.64990				-667.37488	130.84270	1527.12634	
192	1.910																												-263.39447	1258.10938	1519.73596	-952.15576	1014.33759	1564.77747	-223.27306	1175.46863	1285.83655				-513.03265	964.30090	1513.22107							-612.38654	557.05939	1476.32336				-669.75330	129.61858	1526.53369	
193	1.920																												-265.24835	1256.22180	1515.11121	-954.88464	1013.14203	1557.00574	-224.31709	1174.61316	1281.02490				-515.25647	962.90454	1506.97961							-613.96289	554.98059	1471.89148				-672.11176	127.98502	1526.35889	
194	1.930																												-266.97827	1254.14978	1509.41174	-958.17023	1011.42023	1555.38245	-225.83519	1173.25793	1275.91858				-517.37177	961.35022	1500.17017							-616.85516	551.23163	1469.49341				-675.45844	126.77240	1525.89844	
195	1.940																												-268.32126	1252.57678	1505.31555	-960.83990	1010.20929	1547.40051	-226.86725	1172.58411	1271.58496				-520.80896	959.51648	1491.76221							-620.38672	549.34283	1465.38660				-678.51172	126.20383	1524.87732	
196	1.950																												-270.12109	1249.11682	1501.07080	-963.44397	1009.24756	1539.25696	-228.60054	1171.12598	1266.42737				-523.66541	958.66028	1484.09961							-624.35571	546.68164	1460.54614				-680.65363	125.69370	1522.42432	
